<?xml version="1.0" encoding="utf-8" standalone="no"?>
<!DOCTYPE svg PUBLIC "-//W3C//DTD SVG 1.1//EN"
  "http://www.w3.org/Graphics/SVG/1.1/DTD/svg11.dtd">
<svg xmlns:xlink="http://www.w3.org/1999/xlink" width="576pt" height="360pt" viewBox="0 0 576 360" xmlns="http://www.w3.org/2000/svg" version="1.1">
 <metadata>
  <rdf:RDF xmlns:dc="http://purl.org/dc/elements/1.1/" xmlns:cc="http://creativecommons.org/ns#" xmlns:rdf="http://www.w3.org/1999/02/22-rdf-syntax-ns#">
   <cc:Work>
    <dc:type rdf:resource="http://purl.org/dc/dcmitype/StillImage"/>
    <dc:date>2026-08-19T03:14:25.027627</dc:date>
    <dc:format>image/svg+xml</dc:format>
    <dc:creator>
     <cc:Agent>
      <dc:title>Matplotlib v3.9.4, https://matplotlib.org/</dc:title>
     </cc:Agent>
    </dc:creator>
   </cc:Work>
  </rdf:RDF>
 </metadata>
 <defs>
  <style type="text/css">*{stroke-linejoin: round; stroke-linecap: butt}</style>
 </defs>
 <g id="figure_1">
  <g id="patch_1">
   <path d="M 0 360
L 576 360
L 576 0
L 0 0
z
" style="fill: #ffffff"/>
  </g>
  <g id="axes_1">
   <g id="patch_2">
    <path d="M 59.375 318.04
L 565.2 318.04
L 565.2 26.16
L 59.375 26.16
z
" style="fill: #ffffff"/>
   </g>
   <g id="matplotlib.axis_1">
    <g id="xtick_1">
     <g id="line2d_1">
      <path d="M 82.367045 318.04
L 82.367045 26.16
" clip-path="url(#p219d33652d)" style="fill: none; stroke: #b0b0b0; stroke-opacity: 0.2; stroke-width: 0.8; stroke-linecap: square"/>
     </g>
     <g id="line2d_2">
      <defs>
       <path id="m3899a6d455" d="M 0 0
L 0 3.5
" style="stroke: #000000; stroke-width: 0.8"/>
      </defs>
      <g>
       <use xlink:href="#m3899a6d455" x="82.367045" y="318.04" style="stroke: #000000; stroke-width: 0.8"/>
      </g>
     </g>
     <g id="text_1">
      <!-- 0 -->
      <g transform="translate(79.185795 332.638438) scale(0.1 -0.1)">
       <defs>
        <path id="DejaVuSans-30" d="M 2034 4250
Q 1547 4250 1301 3770
Q 1056 3291 1056 2328
Q 1056 1369 1301 889
Q 1547 409 2034 409
Q 2525 409 2770 889
Q 3016 1369 3016 2328
Q 3016 3291 2770 3770
Q 2525 4250 2034 4250
z
M 2034 4750
Q 2819 4750 3233 4129
Q 3647 3509 3647 2328
Q 3647 1150 3233 529
Q 2819 -91 2034 -91
Q 1250 -91 836 529
Q 422 1150 422 2328
Q 422 3509 836 4129
Q 1250 4750 2034 4750
z
" transform="scale(0.015625)"/>
       </defs>
       <use xlink:href="#DejaVuSans-30"/>
      </g>
     </g>
    </g>
    <g id="xtick_2">
     <g id="line2d_3">
      <path d="M 174.335227 318.04
L 174.335227 26.16
" clip-path="url(#p219d33652d)" style="fill: none; stroke: #b0b0b0; stroke-opacity: 0.2; stroke-width: 0.8; stroke-linecap: square"/>
     </g>
     <g id="line2d_4">
      <g>
       <use xlink:href="#m3899a6d455" x="174.335227" y="318.04" style="stroke: #000000; stroke-width: 0.8"/>
      </g>
     </g>
     <g id="text_2">
      <!-- 200 -->
      <g transform="translate(164.791477 332.638438) scale(0.1 -0.1)">
       <defs>
        <path id="DejaVuSans-32" d="M 1228 531
L 3431 531
L 3431 0
L 469 0
L 469 531
Q 828 903 1448 1529
Q 2069 2156 2228 2338
Q 2531 2678 2651 2914
Q 2772 3150 2772 3378
Q 2772 3750 2511 3984
Q 2250 4219 1831 4219
Q 1534 4219 1204 4116
Q 875 4013 500 3803
L 500 4441
Q 881 4594 1212 4672
Q 1544 4750 1819 4750
Q 2544 4750 2975 4387
Q 3406 4025 3406 3419
Q 3406 3131 3298 2873
Q 3191 2616 2906 2266
Q 2828 2175 2409 1742
Q 1991 1309 1228 531
z
" transform="scale(0.015625)"/>
       </defs>
       <use xlink:href="#DejaVuSans-32"/>
       <use xlink:href="#DejaVuSans-30" x="63.623047"/>
       <use xlink:href="#DejaVuSans-30" x="127.246094"/>
      </g>
     </g>
    </g>
    <g id="xtick_3">
     <g id="line2d_5">
      <path d="M 266.303409 318.04
L 266.303409 26.16
" clip-path="url(#p219d33652d)" style="fill: none; stroke: #b0b0b0; stroke-opacity: 0.2; stroke-width: 0.8; stroke-linecap: square"/>
     </g>
     <g id="line2d_6">
      <g>
       <use xlink:href="#m3899a6d455" x="266.303409" y="318.04" style="stroke: #000000; stroke-width: 0.8"/>
      </g>
     </g>
     <g id="text_3">
      <!-- 400 -->
      <g transform="translate(256.759659 332.638438) scale(0.1 -0.1)">
       <defs>
        <path id="DejaVuSans-34" d="M 2419 4116
L 825 1625
L 2419 1625
L 2419 4116
z
M 2253 4666
L 3047 4666
L 3047 1625
L 3713 1625
L 3713 1100
L 3047 1100
L 3047 0
L 2419 0
L 2419 1100
L 313 1100
L 313 1709
L 2253 4666
z
" transform="scale(0.015625)"/>
       </defs>
       <use xlink:href="#DejaVuSans-34"/>
       <use xlink:href="#DejaVuSans-30" x="63.623047"/>
       <use xlink:href="#DejaVuSans-30" x="127.246094"/>
      </g>
     </g>
    </g>
    <g id="xtick_4">
     <g id="line2d_7">
      <path d="M 358.271591 318.04
L 358.271591 26.16
" clip-path="url(#p219d33652d)" style="fill: none; stroke: #b0b0b0; stroke-opacity: 0.2; stroke-width: 0.8; stroke-linecap: square"/>
     </g>
     <g id="line2d_8">
      <g>
       <use xlink:href="#m3899a6d455" x="358.271591" y="318.04" style="stroke: #000000; stroke-width: 0.8"/>
      </g>
     </g>
     <g id="text_4">
      <!-- 600 -->
      <g transform="translate(348.727841 332.638438) scale(0.1 -0.1)">
       <defs>
        <path id="DejaVuSans-36" d="M 2113 2584
Q 1688 2584 1439 2293
Q 1191 2003 1191 1497
Q 1191 994 1439 701
Q 1688 409 2113 409
Q 2538 409 2786 701
Q 3034 994 3034 1497
Q 3034 2003 2786 2293
Q 2538 2584 2113 2584
z
M 3366 4563
L 3366 3988
Q 3128 4100 2886 4159
Q 2644 4219 2406 4219
Q 1781 4219 1451 3797
Q 1122 3375 1075 2522
Q 1259 2794 1537 2939
Q 1816 3084 2150 3084
Q 2853 3084 3261 2657
Q 3669 2231 3669 1497
Q 3669 778 3244 343
Q 2819 -91 2113 -91
Q 1303 -91 875 529
Q 447 1150 447 2328
Q 447 3434 972 4092
Q 1497 4750 2381 4750
Q 2619 4750 2861 4703
Q 3103 4656 3366 4563
z
" transform="scale(0.015625)"/>
       </defs>
       <use xlink:href="#DejaVuSans-36"/>
       <use xlink:href="#DejaVuSans-30" x="63.623047"/>
       <use xlink:href="#DejaVuSans-30" x="127.246094"/>
      </g>
     </g>
    </g>
    <g id="xtick_5">
     <g id="line2d_9">
      <path d="M 450.239773 318.04
L 450.239773 26.16
" clip-path="url(#p219d33652d)" style="fill: none; stroke: #b0b0b0; stroke-opacity: 0.2; stroke-width: 0.8; stroke-linecap: square"/>
     </g>
     <g id="line2d_10">
      <g>
       <use xlink:href="#m3899a6d455" x="450.239773" y="318.04" style="stroke: #000000; stroke-width: 0.8"/>
      </g>
     </g>
     <g id="text_5">
      <!-- 800 -->
      <g transform="translate(440.696023 332.638438) scale(0.1 -0.1)">
       <defs>
        <path id="DejaVuSans-38" d="M 2034 2216
Q 1584 2216 1326 1975
Q 1069 1734 1069 1313
Q 1069 891 1326 650
Q 1584 409 2034 409
Q 2484 409 2743 651
Q 3003 894 3003 1313
Q 3003 1734 2745 1975
Q 2488 2216 2034 2216
z
M 1403 2484
Q 997 2584 770 2862
Q 544 3141 544 3541
Q 544 4100 942 4425
Q 1341 4750 2034 4750
Q 2731 4750 3128 4425
Q 3525 4100 3525 3541
Q 3525 3141 3298 2862
Q 3072 2584 2669 2484
Q 3125 2378 3379 2068
Q 3634 1759 3634 1313
Q 3634 634 3220 271
Q 2806 -91 2034 -91
Q 1263 -91 848 271
Q 434 634 434 1313
Q 434 1759 690 2068
Q 947 2378 1403 2484
z
M 1172 3481
Q 1172 3119 1398 2916
Q 1625 2713 2034 2713
Q 2441 2713 2670 2916
Q 2900 3119 2900 3481
Q 2900 3844 2670 4047
Q 2441 4250 2034 4250
Q 1625 4250 1398 4047
Q 1172 3844 1172 3481
z
" transform="scale(0.015625)"/>
       </defs>
       <use xlink:href="#DejaVuSans-38"/>
       <use xlink:href="#DejaVuSans-30" x="63.623047"/>
       <use xlink:href="#DejaVuSans-30" x="127.246094"/>
      </g>
     </g>
    </g>
    <g id="xtick_6">
     <g id="line2d_11">
      <path d="M 542.207955 318.04
L 542.207955 26.16
" clip-path="url(#p219d33652d)" style="fill: none; stroke: #b0b0b0; stroke-opacity: 0.2; stroke-width: 0.8; stroke-linecap: square"/>
     </g>
     <g id="line2d_12">
      <g>
       <use xlink:href="#m3899a6d455" x="542.207955" y="318.04" style="stroke: #000000; stroke-width: 0.8"/>
      </g>
     </g>
     <g id="text_6">
      <!-- 1000 -->
      <g transform="translate(529.482955 332.638438) scale(0.1 -0.1)">
       <defs>
        <path id="DejaVuSans-31" d="M 794 531
L 1825 531
L 1825 4091
L 703 3866
L 703 4441
L 1819 4666
L 2450 4666
L 2450 531
L 3481 531
L 3481 0
L 794 0
L 794 531
z
" transform="scale(0.015625)"/>
       </defs>
       <use xlink:href="#DejaVuSans-31"/>
       <use xlink:href="#DejaVuSans-30" x="63.623047"/>
       <use xlink:href="#DejaVuSans-30" x="127.246094"/>
       <use xlink:href="#DejaVuSans-30" x="190.869141"/>
      </g>
     </g>
    </g>
    <g id="text_7">
     <!-- Training games used -->
     <g transform="translate(260.569531 346.316563) scale(0.1 -0.1)">
      <defs>
       <path id="DejaVuSans-54" d="M -19 4666
L 3928 4666
L 3928 4134
L 2272 4134
L 2272 0
L 1638 0
L 1638 4134
L -19 4134
L -19 4666
z
" transform="scale(0.015625)"/>
       <path id="DejaVuSans-72" d="M 2631 2963
Q 2534 3019 2420 3045
Q 2306 3072 2169 3072
Q 1681 3072 1420 2755
Q 1159 2438 1159 1844
L 1159 0
L 581 0
L 581 3500
L 1159 3500
L 1159 2956
Q 1341 3275 1631 3429
Q 1922 3584 2338 3584
Q 2397 3584 2469 3576
Q 2541 3569 2628 3553
L 2631 2963
z
" transform="scale(0.015625)"/>
       <path id="DejaVuSans-61" d="M 2194 1759
Q 1497 1759 1228 1600
Q 959 1441 959 1056
Q 959 750 1161 570
Q 1363 391 1709 391
Q 2188 391 2477 730
Q 2766 1069 2766 1631
L 2766 1759
L 2194 1759
z
M 3341 1997
L 3341 0
L 2766 0
L 2766 531
Q 2569 213 2275 61
Q 1981 -91 1556 -91
Q 1019 -91 701 211
Q 384 513 384 1019
Q 384 1609 779 1909
Q 1175 2209 1959 2209
L 2766 2209
L 2766 2266
Q 2766 2663 2505 2880
Q 2244 3097 1772 3097
Q 1472 3097 1187 3025
Q 903 2953 641 2809
L 641 3341
Q 956 3463 1253 3523
Q 1550 3584 1831 3584
Q 2591 3584 2966 3190
Q 3341 2797 3341 1997
z
" transform="scale(0.015625)"/>
       <path id="DejaVuSans-69" d="M 603 3500
L 1178 3500
L 1178 0
L 603 0
L 603 3500
z
M 603 4863
L 1178 4863
L 1178 4134
L 603 4134
L 603 4863
z
" transform="scale(0.015625)"/>
       <path id="DejaVuSans-6e" d="M 3513 2113
L 3513 0
L 2938 0
L 2938 2094
Q 2938 2591 2744 2837
Q 2550 3084 2163 3084
Q 1697 3084 1428 2787
Q 1159 2491 1159 1978
L 1159 0
L 581 0
L 581 3500
L 1159 3500
L 1159 2956
Q 1366 3272 1645 3428
Q 1925 3584 2291 3584
Q 2894 3584 3203 3211
Q 3513 2838 3513 2113
z
" transform="scale(0.015625)"/>
       <path id="DejaVuSans-67" d="M 2906 1791
Q 2906 2416 2648 2759
Q 2391 3103 1925 3103
Q 1463 3103 1205 2759
Q 947 2416 947 1791
Q 947 1169 1205 825
Q 1463 481 1925 481
Q 2391 481 2648 825
Q 2906 1169 2906 1791
z
M 3481 434
Q 3481 -459 3084 -895
Q 2688 -1331 1869 -1331
Q 1566 -1331 1297 -1286
Q 1028 -1241 775 -1147
L 775 -588
Q 1028 -725 1275 -790
Q 1522 -856 1778 -856
Q 2344 -856 2625 -561
Q 2906 -266 2906 331
L 2906 616
Q 2728 306 2450 153
Q 2172 0 1784 0
Q 1141 0 747 490
Q 353 981 353 1791
Q 353 2603 747 3093
Q 1141 3584 1784 3584
Q 2172 3584 2450 3431
Q 2728 3278 2906 2969
L 2906 3500
L 3481 3500
L 3481 434
z
" transform="scale(0.015625)"/>
       <path id="DejaVuSans-20" transform="scale(0.015625)"/>
       <path id="DejaVuSans-6d" d="M 3328 2828
Q 3544 3216 3844 3400
Q 4144 3584 4550 3584
Q 5097 3584 5394 3201
Q 5691 2819 5691 2113
L 5691 0
L 5113 0
L 5113 2094
Q 5113 2597 4934 2840
Q 4756 3084 4391 3084
Q 3944 3084 3684 2787
Q 3425 2491 3425 1978
L 3425 0
L 2847 0
L 2847 2094
Q 2847 2600 2669 2842
Q 2491 3084 2119 3084
Q 1678 3084 1418 2786
Q 1159 2488 1159 1978
L 1159 0
L 581 0
L 581 3500
L 1159 3500
L 1159 2956
Q 1356 3278 1631 3431
Q 1906 3584 2284 3584
Q 2666 3584 2933 3390
Q 3200 3197 3328 2828
z
" transform="scale(0.015625)"/>
       <path id="DejaVuSans-65" d="M 3597 1894
L 3597 1613
L 953 1613
Q 991 1019 1311 708
Q 1631 397 2203 397
Q 2534 397 2845 478
Q 3156 559 3463 722
L 3463 178
Q 3153 47 2828 -22
Q 2503 -91 2169 -91
Q 1331 -91 842 396
Q 353 884 353 1716
Q 353 2575 817 3079
Q 1281 3584 2069 3584
Q 2775 3584 3186 3129
Q 3597 2675 3597 1894
z
M 3022 2063
Q 3016 2534 2758 2815
Q 2500 3097 2075 3097
Q 1594 3097 1305 2825
Q 1016 2553 972 2059
L 3022 2063
z
" transform="scale(0.015625)"/>
       <path id="DejaVuSans-73" d="M 2834 3397
L 2834 2853
Q 2591 2978 2328 3040
Q 2066 3103 1784 3103
Q 1356 3103 1142 2972
Q 928 2841 928 2578
Q 928 2378 1081 2264
Q 1234 2150 1697 2047
L 1894 2003
Q 2506 1872 2764 1633
Q 3022 1394 3022 966
Q 3022 478 2636 193
Q 2250 -91 1575 -91
Q 1294 -91 989 -36
Q 684 19 347 128
L 347 722
Q 666 556 975 473
Q 1284 391 1588 391
Q 1994 391 2212 530
Q 2431 669 2431 922
Q 2431 1156 2273 1281
Q 2116 1406 1581 1522
L 1381 1569
Q 847 1681 609 1914
Q 372 2147 372 2553
Q 372 3047 722 3315
Q 1072 3584 1716 3584
Q 2034 3584 2315 3537
Q 2597 3491 2834 3397
z
" transform="scale(0.015625)"/>
       <path id="DejaVuSans-75" d="M 544 1381
L 544 3500
L 1119 3500
L 1119 1403
Q 1119 906 1312 657
Q 1506 409 1894 409
Q 2359 409 2629 706
Q 2900 1003 2900 1516
L 2900 3500
L 3475 3500
L 3475 0
L 2900 0
L 2900 538
Q 2691 219 2414 64
Q 2138 -91 1772 -91
Q 1169 -91 856 284
Q 544 659 544 1381
z
M 1991 3584
L 1991 3584
z
" transform="scale(0.015625)"/>
       <path id="DejaVuSans-64" d="M 2906 2969
L 2906 4863
L 3481 4863
L 3481 0
L 2906 0
L 2906 525
Q 2725 213 2448 61
Q 2172 -91 1784 -91
Q 1150 -91 751 415
Q 353 922 353 1747
Q 353 2572 751 3078
Q 1150 3584 1784 3584
Q 2172 3584 2448 3432
Q 2725 3281 2906 2969
z
M 947 1747
Q 947 1113 1208 752
Q 1469 391 1925 391
Q 2381 391 2643 752
Q 2906 1113 2906 1747
Q 2906 2381 2643 2742
Q 2381 3103 1925 3103
Q 1469 3103 1208 2742
Q 947 2381 947 1747
z
" transform="scale(0.015625)"/>
      </defs>
      <use xlink:href="#DejaVuSans-54"/>
      <use xlink:href="#DejaVuSans-72" x="46.333984"/>
      <use xlink:href="#DejaVuSans-61" x="87.447266"/>
      <use xlink:href="#DejaVuSans-69" x="148.726562"/>
      <use xlink:href="#DejaVuSans-6e" x="176.509766"/>
      <use xlink:href="#DejaVuSans-69" x="239.888672"/>
      <use xlink:href="#DejaVuSans-6e" x="267.671875"/>
      <use xlink:href="#DejaVuSans-67" x="331.050781"/>
      <use xlink:href="#DejaVuSans-20" x="394.527344"/>
      <use xlink:href="#DejaVuSans-67" x="426.314453"/>
      <use xlink:href="#DejaVuSans-61" x="489.791016"/>
      <use xlink:href="#DejaVuSans-6d" x="551.070312"/>
      <use xlink:href="#DejaVuSans-65" x="648.482422"/>
      <use xlink:href="#DejaVuSans-73" x="710.005859"/>
      <use xlink:href="#DejaVuSans-20" x="762.105469"/>
      <use xlink:href="#DejaVuSans-75" x="793.892578"/>
      <use xlink:href="#DejaVuSans-73" x="857.271484"/>
      <use xlink:href="#DejaVuSans-65" x="909.371094"/>
      <use xlink:href="#DejaVuSans-64" x="970.894531"/>
     </g>
    </g>
   </g>
   <g id="matplotlib.axis_2">
    <g id="ytick_1">
     <g id="line2d_13">
      <path d="M 59.375 290.526731
L 565.2 290.526731
" clip-path="url(#p219d33652d)" style="fill: none; stroke: #b0b0b0; stroke-opacity: 0.2; stroke-width: 0.8; stroke-linecap: square"/>
     </g>
     <g id="line2d_14">
      <defs>
       <path id="m4469a5ad55" d="M 0 0
L -3.5 0
" style="stroke: #000000; stroke-width: 0.8"/>
      </defs>
      <g>
       <use xlink:href="#m4469a5ad55" x="59.375" y="290.526731" style="stroke: #000000; stroke-width: 0.8"/>
      </g>
     </g>
     <g id="text_8">
      <!-- −150 -->
      <g transform="translate(24.907813 294.32595) scale(0.1 -0.1)">
       <defs>
        <path id="DejaVuSans-2212" d="M 678 2272
L 4684 2272
L 4684 1741
L 678 1741
L 678 2272
z
" transform="scale(0.015625)"/>
        <path id="DejaVuSans-35" d="M 691 4666
L 3169 4666
L 3169 4134
L 1269 4134
L 1269 2991
Q 1406 3038 1543 3061
Q 1681 3084 1819 3084
Q 2600 3084 3056 2656
Q 3513 2228 3513 1497
Q 3513 744 3044 326
Q 2575 -91 1722 -91
Q 1428 -91 1123 -41
Q 819 9 494 109
L 494 744
Q 775 591 1075 516
Q 1375 441 1709 441
Q 2250 441 2565 725
Q 2881 1009 2881 1497
Q 2881 1984 2565 2268
Q 2250 2553 1709 2553
Q 1456 2553 1204 2497
Q 953 2441 691 2322
L 691 4666
z
" transform="scale(0.015625)"/>
       </defs>
       <use xlink:href="#DejaVuSans-2212"/>
       <use xlink:href="#DejaVuSans-31" x="83.789062"/>
       <use xlink:href="#DejaVuSans-35" x="147.412109"/>
       <use xlink:href="#DejaVuSans-30" x="211.035156"/>
      </g>
     </g>
    </g>
    <g id="ytick_2">
     <g id="line2d_15">
      <path d="M 59.375 254.597742
L 565.2 254.597742
" clip-path="url(#p219d33652d)" style="fill: none; stroke: #b0b0b0; stroke-opacity: 0.2; stroke-width: 0.8; stroke-linecap: square"/>
     </g>
     <g id="line2d_16">
      <g>
       <use xlink:href="#m4469a5ad55" x="59.375" y="254.597742" style="stroke: #000000; stroke-width: 0.8"/>
      </g>
     </g>
     <g id="text_9">
      <!-- −125 -->
      <g transform="translate(24.907813 258.396961) scale(0.1 -0.1)">
       <use xlink:href="#DejaVuSans-2212"/>
       <use xlink:href="#DejaVuSans-31" x="83.789062"/>
       <use xlink:href="#DejaVuSans-32" x="147.412109"/>
       <use xlink:href="#DejaVuSans-35" x="211.035156"/>
      </g>
     </g>
    </g>
    <g id="ytick_3">
     <g id="line2d_17">
      <path d="M 59.375 218.668754
L 565.2 218.668754
" clip-path="url(#p219d33652d)" style="fill: none; stroke: #b0b0b0; stroke-opacity: 0.2; stroke-width: 0.8; stroke-linecap: square"/>
     </g>
     <g id="line2d_18">
      <g>
       <use xlink:href="#m4469a5ad55" x="59.375" y="218.668754" style="stroke: #000000; stroke-width: 0.8"/>
      </g>
     </g>
     <g id="text_10">
      <!-- −100 -->
      <g transform="translate(24.907813 222.467972) scale(0.1 -0.1)">
       <use xlink:href="#DejaVuSans-2212"/>
       <use xlink:href="#DejaVuSans-31" x="83.789062"/>
       <use xlink:href="#DejaVuSans-30" x="147.412109"/>
       <use xlink:href="#DejaVuSans-30" x="211.035156"/>
      </g>
     </g>
    </g>
    <g id="ytick_4">
     <g id="line2d_19">
      <path d="M 59.375 182.739765
L 565.2 182.739765
" clip-path="url(#p219d33652d)" style="fill: none; stroke: #b0b0b0; stroke-opacity: 0.2; stroke-width: 0.8; stroke-linecap: square"/>
     </g>
     <g id="line2d_20">
      <g>
       <use xlink:href="#m4469a5ad55" x="59.375" y="182.739765" style="stroke: #000000; stroke-width: 0.8"/>
      </g>
     </g>
     <g id="text_11">
      <!-- −75 -->
      <g transform="translate(31.270313 186.538984) scale(0.1 -0.1)">
       <defs>
        <path id="DejaVuSans-37" d="M 525 4666
L 3525 4666
L 3525 4397
L 1831 0
L 1172 0
L 2766 4134
L 525 4134
L 525 4666
z
" transform="scale(0.015625)"/>
       </defs>
       <use xlink:href="#DejaVuSans-2212"/>
       <use xlink:href="#DejaVuSans-37" x="83.789062"/>
       <use xlink:href="#DejaVuSans-35" x="147.412109"/>
      </g>
     </g>
    </g>
    <g id="ytick_5">
     <g id="line2d_21">
      <path d="M 59.375 146.810777
L 565.2 146.810777
" clip-path="url(#p219d33652d)" style="fill: none; stroke: #b0b0b0; stroke-opacity: 0.2; stroke-width: 0.8; stroke-linecap: square"/>
     </g>
     <g id="line2d_22">
      <g>
       <use xlink:href="#m4469a5ad55" x="59.375" y="146.810777" style="stroke: #000000; stroke-width: 0.8"/>
      </g>
     </g>
     <g id="text_12">
      <!-- −50 -->
      <g transform="translate(31.270313 150.609995) scale(0.1 -0.1)">
       <use xlink:href="#DejaVuSans-2212"/>
       <use xlink:href="#DejaVuSans-35" x="83.789062"/>
       <use xlink:href="#DejaVuSans-30" x="147.412109"/>
      </g>
     </g>
    </g>
    <g id="ytick_6">
     <g id="line2d_23">
      <path d="M 59.375 110.881788
L 565.2 110.881788
" clip-path="url(#p219d33652d)" style="fill: none; stroke: #b0b0b0; stroke-opacity: 0.2; stroke-width: 0.8; stroke-linecap: square"/>
     </g>
     <g id="line2d_24">
      <g>
       <use xlink:href="#m4469a5ad55" x="59.375" y="110.881788" style="stroke: #000000; stroke-width: 0.8"/>
      </g>
     </g>
     <g id="text_13">
      <!-- −25 -->
      <g transform="translate(31.270313 114.681007) scale(0.1 -0.1)">
       <use xlink:href="#DejaVuSans-2212"/>
       <use xlink:href="#DejaVuSans-32" x="83.789062"/>
       <use xlink:href="#DejaVuSans-35" x="147.412109"/>
      </g>
     </g>
    </g>
    <g id="ytick_7">
     <g id="line2d_25">
      <path d="M 59.375 74.952799
L 565.2 74.952799
" clip-path="url(#p219d33652d)" style="fill: none; stroke: #b0b0b0; stroke-opacity: 0.2; stroke-width: 0.8; stroke-linecap: square"/>
     </g>
     <g id="line2d_26">
      <g>
       <use xlink:href="#m4469a5ad55" x="59.375" y="74.952799" style="stroke: #000000; stroke-width: 0.8"/>
      </g>
     </g>
     <g id="text_14">
      <!-- 0 -->
      <g transform="translate(46.0125 78.752018) scale(0.1 -0.1)">
       <use xlink:href="#DejaVuSans-30"/>
      </g>
     </g>
    </g>
    <g id="ytick_8">
     <g id="line2d_27">
      <path d="M 59.375 39.023811
L 565.2 39.023811
" clip-path="url(#p219d33652d)" style="fill: none; stroke: #b0b0b0; stroke-opacity: 0.2; stroke-width: 0.8; stroke-linecap: square"/>
     </g>
     <g id="line2d_28">
      <g>
       <use xlink:href="#m4469a5ad55" x="59.375" y="39.023811" style="stroke: #000000; stroke-width: 0.8"/>
      </g>
     </g>
     <g id="text_15">
      <!-- 25 -->
      <g transform="translate(39.65 42.82303) scale(0.1 -0.1)">
       <use xlink:href="#DejaVuSans-32"/>
       <use xlink:href="#DejaVuSans-35" x="63.623047"/>
      </g>
     </g>
    </g>
    <g id="text_16">
     <!-- Held-out Elo vs baseline -->
     <g transform="translate(18.828125 232.467969) rotate(-90) scale(0.1 -0.1)">
      <defs>
       <path id="DejaVuSans-48" d="M 628 4666
L 1259 4666
L 1259 2753
L 3553 2753
L 3553 4666
L 4184 4666
L 4184 0
L 3553 0
L 3553 2222
L 1259 2222
L 1259 0
L 628 0
L 628 4666
z
" transform="scale(0.015625)"/>
       <path id="DejaVuSans-6c" d="M 603 4863
L 1178 4863
L 1178 0
L 603 0
L 603 4863
z
" transform="scale(0.015625)"/>
       <path id="DejaVuSans-2d" d="M 313 2009
L 1997 2009
L 1997 1497
L 313 1497
L 313 2009
z
" transform="scale(0.015625)"/>
       <path id="DejaVuSans-6f" d="M 1959 3097
Q 1497 3097 1228 2736
Q 959 2375 959 1747
Q 959 1119 1226 758
Q 1494 397 1959 397
Q 2419 397 2687 759
Q 2956 1122 2956 1747
Q 2956 2369 2687 2733
Q 2419 3097 1959 3097
z
M 1959 3584
Q 2709 3584 3137 3096
Q 3566 2609 3566 1747
Q 3566 888 3137 398
Q 2709 -91 1959 -91
Q 1206 -91 779 398
Q 353 888 353 1747
Q 353 2609 779 3096
Q 1206 3584 1959 3584
z
" transform="scale(0.015625)"/>
       <path id="DejaVuSans-74" d="M 1172 4494
L 1172 3500
L 2356 3500
L 2356 3053
L 1172 3053
L 1172 1153
Q 1172 725 1289 603
Q 1406 481 1766 481
L 2356 481
L 2356 0
L 1766 0
Q 1100 0 847 248
Q 594 497 594 1153
L 594 3053
L 172 3053
L 172 3500
L 594 3500
L 594 4494
L 1172 4494
z
" transform="scale(0.015625)"/>
       <path id="DejaVuSans-45" d="M 628 4666
L 3578 4666
L 3578 4134
L 1259 4134
L 1259 2753
L 3481 2753
L 3481 2222
L 1259 2222
L 1259 531
L 3634 531
L 3634 0
L 628 0
L 628 4666
z
" transform="scale(0.015625)"/>
       <path id="DejaVuSans-76" d="M 191 3500
L 800 3500
L 1894 563
L 2988 3500
L 3597 3500
L 2284 0
L 1503 0
L 191 3500
z
" transform="scale(0.015625)"/>
       <path id="DejaVuSans-62" d="M 3116 1747
Q 3116 2381 2855 2742
Q 2594 3103 2138 3103
Q 1681 3103 1420 2742
Q 1159 2381 1159 1747
Q 1159 1113 1420 752
Q 1681 391 2138 391
Q 2594 391 2855 752
Q 3116 1113 3116 1747
z
M 1159 2969
Q 1341 3281 1617 3432
Q 1894 3584 2278 3584
Q 2916 3584 3314 3078
Q 3713 2572 3713 1747
Q 3713 922 3314 415
Q 2916 -91 2278 -91
Q 1894 -91 1617 61
Q 1341 213 1159 525
L 1159 0
L 581 0
L 581 4863
L 1159 4863
L 1159 2969
z
" transform="scale(0.015625)"/>
      </defs>
      <use xlink:href="#DejaVuSans-48"/>
      <use xlink:href="#DejaVuSans-65" x="75.195312"/>
      <use xlink:href="#DejaVuSans-6c" x="136.71875"/>
      <use xlink:href="#DejaVuSans-64" x="164.501953"/>
      <use xlink:href="#DejaVuSans-2d" x="227.978516"/>
      <use xlink:href="#DejaVuSans-6f" x="265.9375"/>
      <use xlink:href="#DejaVuSans-75" x="327.119141"/>
      <use xlink:href="#DejaVuSans-74" x="390.498047"/>
      <use xlink:href="#DejaVuSans-20" x="429.707031"/>
      <use xlink:href="#DejaVuSans-45" x="461.494141"/>
      <use xlink:href="#DejaVuSans-6c" x="524.677734"/>
      <use xlink:href="#DejaVuSans-6f" x="552.460938"/>
      <use xlink:href="#DejaVuSans-20" x="613.642578"/>
      <use xlink:href="#DejaVuSans-76" x="645.429688"/>
      <use xlink:href="#DejaVuSans-73" x="704.609375"/>
      <use xlink:href="#DejaVuSans-20" x="756.708984"/>
      <use xlink:href="#DejaVuSans-62" x="788.496094"/>
      <use xlink:href="#DejaVuSans-61" x="851.972656"/>
      <use xlink:href="#DejaVuSans-73" x="913.251953"/>
      <use xlink:href="#DejaVuSans-65" x="965.351562"/>
      <use xlink:href="#DejaVuSans-6c" x="1026.875"/>
      <use xlink:href="#DejaVuSans-69" x="1054.658203"/>
      <use xlink:href="#DejaVuSans-6e" x="1082.441406"/>
      <use xlink:href="#DejaVuSans-65" x="1145.820312"/>
     </g>
    </g>
   </g>
   <g id="line2d_29">
    <path d="M 82.367045 258.120581
L 128.351136 238.924499
L 174.335227 156.036484
L 266.303409 151.043358
L 404.255682 79.824372
L 542.207955 92.009394
" clip-path="url(#p219d33652d)" style="fill: none; stroke: #1f77b4; stroke-opacity: 0.2; stroke-linecap: square"/>
   </g>
   <g id="line2d_30">
    <path d="M 82.367045 212.277469
L 128.351136 230.841624
L 174.335227 220.185482
L 266.303409 222.837132
L 404.255682 143.581568
L 542.207955 217.541777
" clip-path="url(#p219d33652d)" style="fill: none; stroke: #1f77b4; stroke-opacity: 0.2; stroke-linecap: square"/>
   </g>
   <g id="line2d_31">
    <path d="M 82.367045 225.496912
L 128.351136 158.539028
L 174.335227 138.624112
L 266.303409 286.489339
L 404.255682 207.042776
L 542.207955 84.696873
" clip-path="url(#p219d33652d)" style="fill: none; stroke: #1f77b4; stroke-opacity: 0.2; stroke-linecap: square"/>
   </g>
   <g id="LineCollection_1">
    <path d="M 82.367045 278.693383
L 82.367045 185.236592
" clip-path="url(#p219d33652d)" style="fill: none; stroke: #1f77b4; stroke-width: 1.5"/>
    <path d="M 128.351136 271.362409
L 128.351136 147.507692
" clip-path="url(#p219d33652d)" style="fill: none; stroke: #1f77b4; stroke-width: 1.5"/>
    <path d="M 174.335227 231.947617
L 174.335227 111.283102
" clip-path="url(#p219d33652d)" style="fill: none; stroke: #1f77b4; stroke-width: 1.5"/>
    <path d="M 266.303409 304.772727
L 266.303409 135.473825
" clip-path="url(#p219d33652d)" style="fill: none; stroke: #1f77b4; stroke-width: 1.5"/>
    <path d="M 404.255682 224.3529
L 404.255682 62.612911
" clip-path="url(#p219d33652d)" style="fill: none; stroke: #1f77b4; stroke-width: 1.5"/>
    <path d="M 542.207955 223.404757
L 542.207955 39.427273
" clip-path="url(#p219d33652d)" style="fill: none; stroke: #1f77b4; stroke-width: 1.5"/>
   </g>
   <g id="line2d_32">
    <defs>
     <path id="mf99e52b7ab" d="M 3 0
L -3 -0
" style="stroke: #1f77b4"/>
    </defs>
    <g clip-path="url(#p219d33652d)">
     <use xlink:href="#mf99e52b7ab" x="82.367045" y="278.693383" style="fill: #1f77b4; stroke: #1f77b4"/>
     <use xlink:href="#mf99e52b7ab" x="128.351136" y="271.362409" style="fill: #1f77b4; stroke: #1f77b4"/>
     <use xlink:href="#mf99e52b7ab" x="174.335227" y="231.947617" style="fill: #1f77b4; stroke: #1f77b4"/>
     <use xlink:href="#mf99e52b7ab" x="266.303409" y="304.772727" style="fill: #1f77b4; stroke: #1f77b4"/>
     <use xlink:href="#mf99e52b7ab" x="404.255682" y="224.3529" style="fill: #1f77b4; stroke: #1f77b4"/>
     <use xlink:href="#mf99e52b7ab" x="542.207955" y="223.404757" style="fill: #1f77b4; stroke: #1f77b4"/>
    </g>
   </g>
   <g id="line2d_33">
    <g clip-path="url(#p219d33652d)">
     <use xlink:href="#mf99e52b7ab" x="82.367045" y="185.236592" style="fill: #1f77b4; stroke: #1f77b4"/>
     <use xlink:href="#mf99e52b7ab" x="128.351136" y="147.507692" style="fill: #1f77b4; stroke: #1f77b4"/>
     <use xlink:href="#mf99e52b7ab" x="174.335227" y="111.283102" style="fill: #1f77b4; stroke: #1f77b4"/>
     <use xlink:href="#mf99e52b7ab" x="266.303409" y="135.473825" style="fill: #1f77b4; stroke: #1f77b4"/>
     <use xlink:href="#mf99e52b7ab" x="404.255682" y="62.612911" style="fill: #1f77b4; stroke: #1f77b4"/>
     <use xlink:href="#mf99e52b7ab" x="542.207955" y="39.427273" style="fill: #1f77b4; stroke: #1f77b4"/>
    </g>
   </g>
   <g id="line2d_34">
    <path d="M 82.367045 258.120581
L 174.335227 123.822427
L 266.303409 82.260449
" clip-path="url(#p219d33652d)" style="fill: none; stroke: #ff7f0e; stroke-opacity: 0.2; stroke-linecap: square"/>
   </g>
   <g id="line2d_35">
    <path d="M 82.367045 212.277469
L 174.335227 191.502675
L 266.303409 62.771838
" clip-path="url(#p219d33652d)" style="fill: none; stroke: #ff7f0e; stroke-opacity: 0.2; stroke-linecap: square"/>
   </g>
   <g id="line2d_36">
    <path d="M 82.367045 225.496912
L 174.335227 79.824372
L 266.303409 94.448373
" clip-path="url(#p219d33652d)" style="fill: none; stroke: #ff7f0e; stroke-opacity: 0.2; stroke-linecap: square"/>
   </g>
   <g id="LineCollection_2">
    <path d="M 82.367045 278.693383
L 82.367045 185.236592
" clip-path="url(#p219d33652d)" style="fill: none; stroke: #ff7f0e; stroke-width: 1.5"/>
    <path d="M 174.335227 204.354878
L 174.335227 59.078105
" clip-path="url(#p219d33652d)" style="fill: none; stroke: #ff7f0e; stroke-width: 1.5"/>
    <path d="M 266.303409 116.590038
L 266.303409 43.063735
" clip-path="url(#p219d33652d)" style="fill: none; stroke: #ff7f0e; stroke-width: 1.5"/>
   </g>
   <g id="line2d_37">
    <defs>
     <path id="m5d85dcb9fa" d="M 3 0
L -3 -0
" style="stroke: #ff7f0e"/>
    </defs>
    <g clip-path="url(#p219d33652d)">
     <use xlink:href="#m5d85dcb9fa" x="82.367045" y="278.693383" style="fill: #ff7f0e; stroke: #ff7f0e"/>
     <use xlink:href="#m5d85dcb9fa" x="174.335227" y="204.354878" style="fill: #ff7f0e; stroke: #ff7f0e"/>
     <use xlink:href="#m5d85dcb9fa" x="266.303409" y="116.590038" style="fill: #ff7f0e; stroke: #ff7f0e"/>
    </g>
   </g>
   <g id="line2d_38">
    <g clip-path="url(#p219d33652d)">
     <use xlink:href="#m5d85dcb9fa" x="82.367045" y="185.236592" style="fill: #ff7f0e; stroke: #ff7f0e"/>
     <use xlink:href="#m5d85dcb9fa" x="174.335227" y="59.078105" style="fill: #ff7f0e; stroke: #ff7f0e"/>
     <use xlink:href="#m5d85dcb9fa" x="266.303409" y="43.063735" style="fill: #ff7f0e; stroke: #ff7f0e"/>
    </g>
   </g>
   <g id="line2d_39">
    <path d="M 59.375 74.952799
L 565.2 74.952799
" clip-path="url(#p219d33652d)" style="fill: none; stroke: #000000; stroke-width: 0.8; stroke-linecap: square"/>
   </g>
   <g id="line2d_40">
    <path d="M 82.367045 231.964988
L 128.351136 209.43505
L 174.335227 171.615359
L 266.303409 220.123276
L 404.255682 143.482905
L 542.207955 131.416015
" clip-path="url(#p219d33652d)" style="fill: none; stroke: #1f77b4; stroke-width: 1.5; stroke-linecap: square"/>
    <defs>
     <path id="m5473eda5ad" d="M 0 3
C 0.795609 3 1.55874 2.683901 2.12132 2.12132
C 2.683901 1.55874 3 0.795609 3 0
C 3 -0.795609 2.683901 -1.55874 2.12132 -2.12132
C 1.55874 -2.683901 0.795609 -3 0 -3
C -0.795609 -3 -1.55874 -2.683901 -2.12132 -2.12132
C -2.683901 -1.55874 -3 -0.795609 -3 0
C -3 0.795609 -2.683901 1.55874 -2.12132 2.12132
C -1.55874 2.683901 -0.795609 3 0 3
z
" style="stroke: #1f77b4"/>
    </defs>
    <g clip-path="url(#p219d33652d)">
     <use xlink:href="#m5473eda5ad" x="82.367045" y="231.964988" style="fill: #1f77b4; stroke: #1f77b4"/>
     <use xlink:href="#m5473eda5ad" x="128.351136" y="209.43505" style="fill: #1f77b4; stroke: #1f77b4"/>
     <use xlink:href="#m5473eda5ad" x="174.335227" y="171.615359" style="fill: #1f77b4; stroke: #1f77b4"/>
     <use xlink:href="#m5473eda5ad" x="266.303409" y="220.123276" style="fill: #1f77b4; stroke: #1f77b4"/>
     <use xlink:href="#m5473eda5ad" x="404.255682" y="143.482905" style="fill: #1f77b4; stroke: #1f77b4"/>
     <use xlink:href="#m5473eda5ad" x="542.207955" y="131.416015" style="fill: #1f77b4; stroke: #1f77b4"/>
    </g>
   </g>
   <g id="line2d_41">
    <path d="M 82.367045 231.964988
L 174.335227 131.716491
L 266.303409 79.826887
" clip-path="url(#p219d33652d)" style="fill: none; stroke: #ff7f0e; stroke-width: 1.5; stroke-linecap: square"/>
    <defs>
     <path id="m70d22a934b" d="M 0 3
C 0.795609 3 1.55874 2.683901 2.12132 2.12132
C 2.683901 1.55874 3 0.795609 3 0
C 3 -0.795609 2.683901 -1.55874 2.12132 -2.12132
C 1.55874 -2.683901 0.795609 -3 0 -3
C -0.795609 -3 -1.55874 -2.683901 -2.12132 -2.12132
C -2.683901 -1.55874 -3 -0.795609 -3 0
C -3 0.795609 -2.683901 1.55874 -2.12132 2.12132
C -1.55874 2.683901 -0.795609 3 0 3
z
" style="stroke: #ff7f0e"/>
    </defs>
    <g clip-path="url(#p219d33652d)">
     <use xlink:href="#m70d22a934b" x="82.367045" y="231.964988" style="fill: #ff7f0e; stroke: #ff7f0e"/>
     <use xlink:href="#m70d22a934b" x="174.335227" y="131.716491" style="fill: #ff7f0e; stroke: #ff7f0e"/>
     <use xlink:href="#m70d22a934b" x="266.303409" y="79.826887" style="fill: #ff7f0e; stroke: #ff7f0e"/>
    </g>
   </g>
   <g id="patch_3">
    <path d="M 59.375 318.04
L 59.375 26.16
" style="fill: none; stroke: #000000; stroke-width: 0.8; stroke-linejoin: miter; stroke-linecap: square"/>
   </g>
   <g id="patch_4">
    <path d="M 565.2 318.04
L 565.2 26.16
" style="fill: none; stroke: #000000; stroke-width: 0.8; stroke-linejoin: miter; stroke-linecap: square"/>
   </g>
   <g id="patch_5">
    <path d="M 59.375 318.04
L 565.2 318.04
" style="fill: none; stroke: #000000; stroke-width: 0.8; stroke-linejoin: miter; stroke-linecap: square"/>
   </g>
   <g id="patch_6">
    <path d="M 59.375 26.16
L 565.2 26.16
" style="fill: none; stroke: #000000; stroke-width: 0.8; stroke-linejoin: miter; stroke-linecap: square"/>
   </g>
   <g id="text_17">
    <!-- Held-out recovery from degraded search parameters -->
    <g transform="translate(153.263125 20.16) scale(0.12 -0.12)">
     <defs>
      <path id="DejaVuSans-63" d="M 3122 3366
L 3122 2828
Q 2878 2963 2633 3030
Q 2388 3097 2138 3097
Q 1578 3097 1268 2742
Q 959 2388 959 1747
Q 959 1106 1268 751
Q 1578 397 2138 397
Q 2388 397 2633 464
Q 2878 531 3122 666
L 3122 134
Q 2881 22 2623 -34
Q 2366 -91 2075 -91
Q 1284 -91 818 406
Q 353 903 353 1747
Q 353 2603 823 3093
Q 1294 3584 2113 3584
Q 2378 3584 2631 3529
Q 2884 3475 3122 3366
z
" transform="scale(0.015625)"/>
      <path id="DejaVuSans-79" d="M 2059 -325
Q 1816 -950 1584 -1140
Q 1353 -1331 966 -1331
L 506 -1331
L 506 -850
L 844 -850
Q 1081 -850 1212 -737
Q 1344 -625 1503 -206
L 1606 56
L 191 3500
L 800 3500
L 1894 763
L 2988 3500
L 3597 3500
L 2059 -325
z
" transform="scale(0.015625)"/>
      <path id="DejaVuSans-66" d="M 2375 4863
L 2375 4384
L 1825 4384
Q 1516 4384 1395 4259
Q 1275 4134 1275 3809
L 1275 3500
L 2222 3500
L 2222 3053
L 1275 3053
L 1275 0
L 697 0
L 697 3053
L 147 3053
L 147 3500
L 697 3500
L 697 3744
Q 697 4328 969 4595
Q 1241 4863 1831 4863
L 2375 4863
z
" transform="scale(0.015625)"/>
      <path id="DejaVuSans-68" d="M 3513 2113
L 3513 0
L 2938 0
L 2938 2094
Q 2938 2591 2744 2837
Q 2550 3084 2163 3084
Q 1697 3084 1428 2787
Q 1159 2491 1159 1978
L 1159 0
L 581 0
L 581 4863
L 1159 4863
L 1159 2956
Q 1366 3272 1645 3428
Q 1925 3584 2291 3584
Q 2894 3584 3203 3211
Q 3513 2838 3513 2113
z
" transform="scale(0.015625)"/>
      <path id="DejaVuSans-70" d="M 1159 525
L 1159 -1331
L 581 -1331
L 581 3500
L 1159 3500
L 1159 2969
Q 1341 3281 1617 3432
Q 1894 3584 2278 3584
Q 2916 3584 3314 3078
Q 3713 2572 3713 1747
Q 3713 922 3314 415
Q 2916 -91 2278 -91
Q 1894 -91 1617 61
Q 1341 213 1159 525
z
M 3116 1747
Q 3116 2381 2855 2742
Q 2594 3103 2138 3103
Q 1681 3103 1420 2742
Q 1159 2381 1159 1747
Q 1159 1113 1420 752
Q 1681 391 2138 391
Q 2594 391 2855 752
Q 3116 1113 3116 1747
z
" transform="scale(0.015625)"/>
     </defs>
     <use xlink:href="#DejaVuSans-48"/>
     <use xlink:href="#DejaVuSans-65" x="75.195312"/>
     <use xlink:href="#DejaVuSans-6c" x="136.71875"/>
     <use xlink:href="#DejaVuSans-64" x="164.501953"/>
     <use xlink:href="#DejaVuSans-2d" x="227.978516"/>
     <use xlink:href="#DejaVuSans-6f" x="265.9375"/>
     <use xlink:href="#DejaVuSans-75" x="327.119141"/>
     <use xlink:href="#DejaVuSans-74" x="390.498047"/>
     <use xlink:href="#DejaVuSans-20" x="429.707031"/>
     <use xlink:href="#DejaVuSans-72" x="461.494141"/>
     <use xlink:href="#DejaVuSans-65" x="500.357422"/>
     <use xlink:href="#DejaVuSans-63" x="561.880859"/>
     <use xlink:href="#DejaVuSans-6f" x="616.861328"/>
     <use xlink:href="#DejaVuSans-76" x="678.042969"/>
     <use xlink:href="#DejaVuSans-65" x="737.222656"/>
     <use xlink:href="#DejaVuSans-72" x="798.746094"/>
     <use xlink:href="#DejaVuSans-79" x="839.859375"/>
     <use xlink:href="#DejaVuSans-20" x="899.039062"/>
     <use xlink:href="#DejaVuSans-66" x="930.826172"/>
     <use xlink:href="#DejaVuSans-72" x="966.03125"/>
     <use xlink:href="#DejaVuSans-6f" x="1004.894531"/>
     <use xlink:href="#DejaVuSans-6d" x="1066.076172"/>
     <use xlink:href="#DejaVuSans-20" x="1163.488281"/>
     <use xlink:href="#DejaVuSans-64" x="1195.275391"/>
     <use xlink:href="#DejaVuSans-65" x="1258.751953"/>
     <use xlink:href="#DejaVuSans-67" x="1320.275391"/>
     <use xlink:href="#DejaVuSans-72" x="1383.751953"/>
     <use xlink:href="#DejaVuSans-61" x="1424.865234"/>
     <use xlink:href="#DejaVuSans-64" x="1486.144531"/>
     <use xlink:href="#DejaVuSans-65" x="1549.621094"/>
     <use xlink:href="#DejaVuSans-64" x="1611.144531"/>
     <use xlink:href="#DejaVuSans-20" x="1674.621094"/>
     <use xlink:href="#DejaVuSans-73" x="1706.408203"/>
     <use xlink:href="#DejaVuSans-65" x="1758.507812"/>
     <use xlink:href="#DejaVuSans-61" x="1820.03125"/>
     <use xlink:href="#DejaVuSans-72" x="1881.310547"/>
     <use xlink:href="#DejaVuSans-63" x="1920.173828"/>
     <use xlink:href="#DejaVuSans-68" x="1975.154297"/>
     <use xlink:href="#DejaVuSans-20" x="2038.533203"/>
     <use xlink:href="#DejaVuSans-70" x="2070.320312"/>
     <use xlink:href="#DejaVuSans-61" x="2133.796875"/>
     <use xlink:href="#DejaVuSans-72" x="2195.076172"/>
     <use xlink:href="#DejaVuSans-61" x="2236.189453"/>
     <use xlink:href="#DejaVuSans-6d" x="2297.46875"/>
     <use xlink:href="#DejaVuSans-65" x="2394.880859"/>
     <use xlink:href="#DejaVuSans-74" x="2456.404297"/>
     <use xlink:href="#DejaVuSans-65" x="2495.613281"/>
     <use xlink:href="#DejaVuSans-72" x="2557.136719"/>
     <use xlink:href="#DejaVuSans-73" x="2598.25"/>
    </g>
   </g>
   <g id="legend_1">
    <g id="patch_7">
     <path d="M 66.375 63.51625
L 141.714063 63.51625
Q 143.714063 63.51625 143.714063 61.51625
L 143.714063 33.16
Q 143.714063 31.16 141.714063 31.16
L 66.375 31.16
Q 64.375 31.16 64.375 33.16
L 64.375 61.51625
Q 64.375 63.51625 66.375 63.51625
z
" style="fill: #ffffff; opacity: 0.8; stroke: #cccccc; stroke-linejoin: miter"/>
    </g>
    <g id="LineCollection_3">
     <path d="M 78.375 44.258437
L 78.375 34.258437
" style="fill: none; stroke: #1f77b4; stroke-width: 1.5"/>
    </g>
    <g id="line2d_42">
     <g>
      <use xlink:href="#mf99e52b7ab" x="78.375" y="44.258437" style="fill: #1f77b4; stroke: #1f77b4"/>
     </g>
    </g>
    <g id="line2d_43">
     <g>
      <use xlink:href="#mf99e52b7ab" x="78.375" y="34.258437" style="fill: #1f77b4; stroke: #1f77b4"/>
     </g>
    </g>
    <g id="line2d_44">
     <path d="M 68.375 39.258437
L 88.375 39.258437
" style="fill: none; stroke: #1f77b4; stroke-width: 1.5; stroke-linecap: square"/>
    </g>
    <g id="line2d_45">
     <g>
      <use xlink:href="#m5473eda5ad" x="78.375" y="39.258437" style="fill: #1f77b4; stroke: #1f77b4"/>
     </g>
    </g>
    <g id="text_18">
     <!-- ctt-mes -->
     <g transform="translate(96.375 42.758437) scale(0.1 -0.1)">
      <use xlink:href="#DejaVuSans-63"/>
      <use xlink:href="#DejaVuSans-74" x="54.980469"/>
      <use xlink:href="#DejaVuSans-74" x="94.189453"/>
      <use xlink:href="#DejaVuSans-2d" x="133.398438"/>
      <use xlink:href="#DejaVuSans-6d" x="169.482422"/>
      <use xlink:href="#DejaVuSans-65" x="266.894531"/>
      <use xlink:href="#DejaVuSans-73" x="328.417969"/>
     </g>
    </g>
    <g id="LineCollection_4">
     <path d="M 78.375 58.936562
L 78.375 48.936562
" style="fill: none; stroke: #ff7f0e; stroke-width: 1.5"/>
    </g>
    <g id="line2d_46">
     <g>
      <use xlink:href="#m5d85dcb9fa" x="78.375" y="58.936562" style="fill: #ff7f0e; stroke: #ff7f0e"/>
     </g>
    </g>
    <g id="line2d_47">
     <g>
      <use xlink:href="#m5d85dcb9fa" x="78.375" y="48.936562" style="fill: #ff7f0e; stroke: #ff7f0e"/>
     </g>
    </g>
    <g id="line2d_48">
     <path d="M 68.375 53.936562
L 88.375 53.936562
" style="fill: none; stroke: #ff7f0e; stroke-width: 1.5; stroke-linecap: square"/>
    </g>
    <g id="line2d_49">
     <g>
      <use xlink:href="#m70d22a934b" x="78.375" y="53.936562" style="fill: #ff7f0e; stroke: #ff7f0e"/>
     </g>
    </g>
    <g id="text_19">
     <!-- spsa-r02 -->
     <g transform="translate(96.375 57.436562) scale(0.1 -0.1)">
      <use xlink:href="#DejaVuSans-73"/>
      <use xlink:href="#DejaVuSans-70" x="52.099609"/>
      <use xlink:href="#DejaVuSans-73" x="115.576172"/>
      <use xlink:href="#DejaVuSans-61" x="167.675781"/>
      <use xlink:href="#DejaVuSans-2d" x="228.955078"/>
      <use xlink:href="#DejaVuSans-72" x="265.039062"/>
      <use xlink:href="#DejaVuSans-30" x="306.152344"/>
      <use xlink:href="#DejaVuSans-32" x="369.775391"/>
     </g>
    </g>
   </g>
  </g>
 </g>
 <defs>
  <clipPath id="p219d33652d">
   <rect x="59.375" y="26.16" width="505.825" height="291.88"/>
  </clipPath>
 </defs>
</svg>
